<svg viewBox="65.19996 243.20040000000003 474 109.2" version="1.1" xmlns="http://www.w3.org/2000/svg" id="Layer_1" style="max-height: 500px" width="474" height="109.2">
  
  <defs>
    <style>
      .st0 {
        fill: #fff;
      }
    </style>
  </defs>
  <g>
    <path d="M162.08,325.72v-15.88c0-.72.56-1.31,1.27-1.35,10.62-.69,18.96-9.92,18.19-20.87-.67-9.61-8.46-17.4-18.07-18.07-10.96-.77-20.18,7.57-20.87,18.19-.05.72-.63,1.27-1.35,1.27h-15.88c-.78,0-1.39-.65-1.36-1.42.77-20.95,18.54-37.63,39.89-36.63,19.5.91,35.32,16.74,36.23,36.23,1,21.35-15.68,39.12-36.63,39.89-.78.03-1.42-.58-1.42-1.36Z" class="st0"/>
    <path d="M131.04,319.19c-2.15,0-4.18-.46-6.06-1.36-.72-.35-1.57-.03-1.88.71-3.11,7.41-10.67,12.51-19.32,11.93-9.64-.64-17.46-8.44-18.14-18.07-.77-10.96,7.57-20.19,18.19-20.88.72-.05,1.27-.63,1.27-1.35v-15.88c0-.78-.65-1.39-1.42-1.36-20.96.77-37.65,18.56-36.63,39.92.93,19.52,16.78,35.33,36.3,36.21,19.41.87,35.85-12.87,39.21-31.13.21-1.13-.97-2-1.98-1.45-2.78,1.52-6.08,2.72-9.55,2.72Z" class="st0"/>
    <path d="M152.45,301.9c-1.02,1.33-1.16,2.16.03,3.47,1.48,1.63,4.12,2.69,6.1,3.5.12.17-.9,1.52-1.13,1.6l-4.43.41c-2.3-.05-4.59.21-6.88,0-.02-.14.01-.21.08-.32.23-.36.68-.8.95-1.2.25-.35,1.33-1.91,1.24-2.25-.48-.49-.76.24-1.04.54-1.22,1.29-2.63,2.59-4.17,3.78-5.56,4.3-12.81,7.17-18.85,2.8,0,0-.02-.02-.03-.02-.02-.14,0-.15.06-.13.03,0,.07.03.12.03,4.37.41,6.72.13,10.36-2.52.1-.07.44-.33.78-.59.41-.32.83-.66.85-.71.02-.04.04-.24-.05-.22l-10.22-2.03-.15-.21,1.28-1.4c4.38-.59,9.02-.87,13.22-2.47,4.91-1.87,6.32-6.04,10.08-9.2,2.12-1.79,4.71-3.14,7.52-2.82,1.47.17,1.64.77.84,1.95-1.85,2.73-4.54,5.37-6.57,8.02Z" class="st0"/>
  </g>
  <g>
    <path d="M236.13,317.32c1.17,1.72,2.62,3.1,4.34,4.12,1.72,1.03,3.78,1.54,6.17,1.54,3.25,0,5.8-.9,7.64-2.69,1.84-1.79,2.76-4.08,2.76-6.85,0-2.44-.55-4.4-1.65-5.88-1.1-1.48-2.52-2.69-4.27-3.62-1.75-.93-3.58-1.76-5.49-2.47-1.43-.53-2.93-1.16-4.48-1.9-1.55-.74-3-1.65-4.34-2.73-1.34-1.08-2.43-2.38-3.26-3.91-.84-1.53-1.26-3.37-1.26-5.52,0-2.39.57-4.51,1.72-6.35,1.15-1.84,2.75-3.27,4.81-4.3,2.06-1.03,4.38-1.54,6.96-1.54s4.99.5,6.92,1.51c1.94,1,3.55,2.27,4.84,3.8,1.29,1.53,2.27,3.11,2.94,4.73l-3.44,1.94c-.53-1.29-1.28-2.56-2.26-3.8-.98-1.24-2.21-2.28-3.69-3.12-1.48-.84-3.32-1.26-5.52-1.26-2.92,0-5.17.75-6.74,2.26-1.58,1.51-2.37,3.38-2.37,5.63,0,1.87.45,3.47,1.36,4.81.91,1.34,2.27,2.55,4.09,3.62,1.82,1.08,4.06,2.09,6.74,3.05,1.39.53,2.82,1.17,4.3,1.94,1.48.77,2.83,1.72,4.05,2.87s2.21,2.52,2.98,4.12c.76,1.6,1.15,3.5,1.15,5.7,0,2.06-.37,3.92-1.11,5.59-.74,1.67-1.77,3.12-3.08,4.34-1.32,1.22-2.86,2.15-4.63,2.8-1.77.65-3.68.97-5.74.97-2.92,0-5.48-.6-7.68-1.79-2.2-1.19-4.04-2.8-5.52-4.81-1.48-2.01-2.63-4.18-3.44-6.53l3.23-2.01c.81,2.11,1.8,4.02,2.98,5.74Z" class="st0"/>
    <path d="M269.09,270.12v55.95h-3.73v-55.95h3.73ZM288.02,293.07l-15.57,13.63,16.93,19.37h-4.73l-16.93-19.37,15.49-13.63h4.81Z" class="st0"/>
    <path d="M295.77,341.85h-4.16l8.46-19.15-13.34-29.63h4.45l11.98,28.12-1.72-.14,11.69-27.98h4.16l-21.52,48.78Z" class="st0"/>
    <path d="M324.46,312.23c1.82,3.25,4.26,5.81,7.32,7.68,3.06,1.87,6.48,2.8,10.26,2.8,2.39,0,4.57-.26,6.53-.79,1.96-.53,3.74-1.31,5.34-2.37,1.6-1.05,3.02-2.29,4.27-3.73v5.31c-2.11,1.87-4.4,3.26-6.89,4.2-2.49.93-5.57,1.4-9.25,1.4-3.49,0-6.73-.64-9.72-1.9-2.99-1.27-5.58-3.05-7.78-5.34-2.2-2.29-3.92-5.02-5.17-8.18-1.24-3.16-1.87-6.6-1.87-10.33s.62-7.17,1.87-10.33c1.24-3.16,2.96-5.88,5.17-8.18,2.2-2.3,4.79-4.08,7.78-5.34,2.99-1.27,6.23-1.9,9.72-1.9,3.68,0,6.77.47,9.25,1.4,2.49.93,4.78,2.33,6.89,4.2v5.24c-1.24-1.43-2.68-2.67-4.3-3.69-1.63-1.03-3.42-1.8-5.38-2.33-1.96-.53-4.11-.79-6.46-.79-3.78,0-7.2.92-10.26,2.76-3.06,1.84-5.5,4.39-7.32,7.64-1.82,3.25-2.73,7.03-2.73,11.33s.91,8.01,2.73,11.26Z" class="st0"/>
    <path d="M364.21,300.68c1.48-2.58,3.5-4.61,6.06-6.1,2.56-1.48,5.44-2.22,8.64-2.22s6.09.74,8.64,2.22c2.56,1.48,4.58,3.51,6.06,6.1,1.48,2.58,2.22,5.55,2.22,8.89s-.74,6.25-2.22,8.86c-1.48,2.61-3.5,4.65-6.06,6.13-2.56,1.48-5.44,2.22-8.64,2.22s-6.09-.74-8.64-2.22c-2.56-1.48-4.58-3.53-6.06-6.13-1.48-2.61-2.22-5.56-2.22-8.86s.74-6.31,2.22-8.89ZM367.51,316.67c1.15,2.06,2.71,3.67,4.7,4.84,1.98,1.17,4.22,1.76,6.71,1.76s4.72-.58,6.71-1.76c1.98-1.17,3.55-2.78,4.7-4.84,1.15-2.06,1.72-4.42,1.72-7.1s-.57-4.98-1.72-7.06c-1.15-2.08-2.71-3.71-4.7-4.88-1.99-1.17-4.22-1.76-6.71-1.76s-4.72.57-6.71,1.72c-1.98,1.15-3.55,2.76-4.7,4.84-1.15,2.08-1.72,4.46-1.72,7.14s.57,5.05,1.72,7.1Z" class="st0"/>
    <path d="M419.3,298.24c-1.24-1.58-3.2-2.37-5.88-2.37-1.87,0-3.53.44-4.99,1.33-1.46.89-2.61,2.09-3.44,3.62-.84,1.53-1.26,3.25-1.26,5.16v20.09h-3.73v-33h3.73v6.89c.91-2.39,2.28-4.25,4.12-5.59,1.84-1.34,3.98-2.01,6.42-2.01,3.44,0,6.07,1.09,7.89,3.26,1.82,2.18,2.73,5.11,2.73,8.79v21.66h-3.73v-21.23c0-2.82-.62-5.02-1.86-6.6Z" class="st0"/>
    <path d="M448.35,298.24c-1.24-1.58-3.2-2.37-5.88-2.37-1.87,0-3.53.44-4.99,1.33-1.46.89-2.61,2.09-3.44,3.62-.84,1.53-1.26,3.25-1.26,5.16v20.09h-3.73v-33h3.73v6.89c.91-2.39,2.28-4.25,4.12-5.59,1.84-1.34,3.98-2.01,6.42-2.01,3.44,0,6.07,1.09,7.89,3.26,1.82,2.18,2.73,5.11,2.73,8.79v21.66h-3.73v-21.23c0-2.82-.62-5.02-1.86-6.6Z" class="st0"/>
    <path d="M465.49,324.56c-2.29-1.48-4.1-3.53-5.42-6.13-1.31-2.61-1.97-5.58-1.97-8.93s.67-6.31,2.01-8.89c1.34-2.58,3.2-4.6,5.59-6.06,2.39-1.46,5.14-2.19,8.25-2.19s5.65.69,7.93,2.08c2.27,1.39,4.04,3.31,5.31,5.77,1.27,2.46,1.9,5.3,1.9,8.5,0,.29-.01.6-.04.93-.02.33-.06.62-.11.86h-28.48v-3.23h25.68l-1.58,2.22c.1-.24.2-.56.32-.97.12-.41.18-.8.18-1.18,0-2.25-.49-4.26-1.47-6.03-.98-1.77-2.31-3.16-3.98-4.16-1.67-1-3.56-1.51-5.67-1.51-2.44,0-4.56.56-6.35,1.69-1.79,1.12-3.19,2.7-4.2,4.74-1,2.03-1.51,4.44-1.51,7.21s.49,5.28,1.47,7.39c.98,2.11,2.37,3.73,4.16,4.88,1.79,1.15,3.89,1.72,6.28,1.72,2.53,0,4.75-.55,6.64-1.65,1.89-1.1,3.57-2.82,5.06-5.16l3.01,1.94c-1.87,2.87-4.03,4.99-6.49,6.35-2.46,1.36-5.34,2.04-8.64,2.04-2.97,0-5.59-.74-7.89-2.22Z" class="st0"/>
    <path d="M495.55,316.67c1.15,2.06,2.71,3.67,4.7,4.84,1.98,1.17,4.22,1.76,6.71,1.76,1.77,0,3.42-.26,4.95-.79,1.53-.53,2.86-1.21,3.98-2.04,1.12-.84,1.92-1.69,2.4-2.55v4.66c-1,1.2-2.55,2.2-4.63,3.01-2.08.81-4.32,1.22-6.71,1.22-3.2,0-6.07-.74-8.61-2.22-2.54-1.48-4.56-3.53-6.06-6.13-1.51-2.61-2.26-5.56-2.26-8.86s.75-6.31,2.26-8.89c1.51-2.58,3.53-4.61,6.06-6.1,2.53-1.48,5.4-2.22,8.61-2.22,2.39,0,4.63.42,6.71,1.26,2.08.84,3.62,1.83,4.63,2.98v4.66c-.48-.91-1.28-1.77-2.4-2.58-1.12-.81-2.45-1.48-3.98-2.01-1.53-.53-3.18-.79-4.95-.79-2.49,0-4.72.59-6.71,1.76-1.98,1.17-3.55,2.79-4.7,4.84-1.15,2.06-1.72,4.42-1.72,7.1s.57,5.05,1.72,7.1Z" class="st0"/>
    <path d="M532.99,293.07v3.51h-14.49v-3.51h14.49ZM527.61,281.6v44.47h-3.73v-44.47h3.73Z" class="st0"/>
  </g>
</svg>